<?xml version="1.0" standalone="no"?>
<!DOCTYPE svg PUBLIC "-//W3C//DTD SVG 20010904//EN"
 "http://www.w3.org/TR/2001/REC-SVG-20010904/DTD/svg10.dtd">
<svg version="1.0" xmlns="http://www.w3.org/2000/svg"
 width="512.000000pt" height="512.000000pt" viewBox="0 0 512.000000 512.000000"
 preserveAspectRatio="xMidYMid meet">
<metadata>
Created by potrace 1.11, written by Peter Selinger 2001-2013
</metadata>
<g transform="translate(0.000000,512.000000) scale(0.100000,-0.100000)"
fill="#000000" stroke="none">
<path d="M3545 4859 c-97 -13 -131 -20 -205 -40 -394 -110 -718 -389 -909
-783 -70 -145 -128 -330 -147 -471 -3 -27 -8 -59 -10 -70 -6 -26 -6 -304 -1
-330 3 -11 8 -42 11 -70 10 -76 52 -221 92 -321 49 -124 131 -275 296 -546
156 -258 240 -425 288 -568 36 -106 35 -102 57 -220 17 -93 23 -300 10 -395
-20 -158 -80 -302 -195 -465 -65 -92 -326 -350 -354 -350 -5 0 -8 -4 -8 -10 0
-5 6 -7 13 -5 6 2 23 6 37 9 100 17 240 65 352 121 204 103 373 274 492 498
75 143 148 376 180 582 19 115 26 170 31 240 4 44 8 95 11 114 5 45 14 364 19
666 5 297 18 389 81 557 69 184 195 325 360 405 100 48 177 62 314 58 166 -5
310 -53 458 -154 76 -51 210 -184 239 -236 9 -15 12 -5 17 46 4 35 9 84 12
109 5 46 6 315 0 360 -3 33 -16 127 -22 165 -3 17 -9 48 -15 70 -5 22 -12 50
-15 63 -2 12 -19 61 -36 109 -116 320 -340 570 -643 718 -149 73 -292 116
-460 140 -69 10 -289 13 -350 4z"/>
<path d="M901 3384 c-12 -15 -21 -34 -22 -43 0 -9 -3 -34 -5 -56 -2 -23 -5
-69 -7 -103 -2 -34 -5 -63 -7 -65 -3 -3 -36 1 -75 8 -134 22 -258 4 -385 -58
-120 -58 -231 -169 -288 -288 -145 -299 -41 -650 244 -821 225 -135 508 -116
718 48 197 155 281 417 215 669 -13 49 -71 166 -103 208 -28 36 -44 80 -81
222 -38 143 -73 244 -96 277 -28 38 -79 39 -108 2z m-264 -718 c42 -46 45
-103 8 -152 -95 -124 -276 3 -197 138 40 68 134 74 189 14z"/>
<path d="M1800 2274 c-47 -7 -112 -19 -146 -28 -410 -107 -723 -472 -770 -896
-46 -418 167 -831 531 -1030 59 -33 74 -46 78 -69 13 -65 98 -95 145 -51 11
11 27 18 34 15 7 -2 29 -6 48 -9 19 -3 49 -8 65 -12 60 -11 202 -10 290 3 159
23 311 82 448 175 57 38 201 175 237 224 48 66 62 88 93 150 87 171 121 312
121 494 -1 501 -370 940 -861 1024 -118 21 -211 23 -313 10z"/>
<path d="M214 1784 c-208 -76 -224 -364 -27 -461 136 -66 293 -3 348 140 31
81 9 185 -53 255 -61 68 -182 98 -268 66z"/>
</g>
</svg>
